<?xml version="1.0" encoding="UTF-8"?>
<svg width="80px" height="80px" viewBox="0 0 80 80" version="1.1" xmlns="http://www.w3.org/2000/svg" xmlns:xlink="http://www.w3.org/1999/xlink">
    <title>编组 3</title>
    <defs>
        <rect id="path-1" x="0" y="0" width="80" height="80"></rect>
    </defs>
    <g id="不可用提示" stroke="none" stroke-width="1" fill="none" fill-rule="evenodd">
        <g id="对话-未登录" transform="translate(-300, -152)">
            <g id="编组-3" transform="translate(300, 152)">
                <mask id="mask-2" fill="white">
                    <use xlink:href="#path-1"></use>
                </mask>
                <g id="矩形"></g>
                <g id="编组-7" mask="url(#mask-2)" stroke="#333333" stroke-linejoin="round" stroke-width="2">
                    <g transform="translate(40.1174, 42.9894) rotate(18) translate(-40.1174, -42.9894)translate(4.2836, -1.1681)">
                        <polyline id="路径" stroke-linecap="round" points="59.1875017 40.24271 51.0736701 32.24271 18.1473879 32.674758 11.1875017 39.6712322"></polyline>
                        <path d="M10.9295011,65.0735178 C15.4119608,73.3475841 24.1708112,78.9666151 34.2420566,78.9666151 C48.8754069,78.9666151 60.7380811,67.1039409 60.7380811,52.4705906 C60.7380811,39.7604963 51.788708,29.1406401 39.8476032,26.5686633" id="路径" stroke-linecap="round" transform="translate(35.8338, 52.7676) rotate(54) translate(-35.8338, -52.7676)"></path>
                        <path d="M11.7376647,39.1753202 C18.8464577,40.9618544 23.4439561,39.4110588 25.5301598,34.5229334 C28.0332335,38.3361178 31.3504939,40.24271 35.4819412,40.24271 C41.6791121,40.24271 44.3918829,34.8103094 44.6599103,34.24271 C47.794477,39.3790355 52.6370074,41.1912541 59.1875017,39.6793657" id="路径-16"></path>
                        <path d="M24.1812108,75.5251943 C22.2902174,72.5032493 20.9749339,65.6812238 23.9032268,56.24271 C24.8257299,66.8179552 27.9236731,73.4384846 33.1970563,76.1042981 C41.1071312,80.1030185 45.6140524,73.1021739 46.8031597,62.3735214 C47.4651356,68.7556799 47.2719901,72.9855883 46.2237233,75.0632467" id="路径-17" stroke-linecap="round"></path>
                        <path d="M30.228274,28.6819562 C30.228274,23.6648076 26.1610714,19.597605 21.1439227,19.597605 C16.1267741,19.597605 12.0595715,23.6648076 12.0595715,28.6819562" id="路径" transform="translate(21.1439, 24.1398) rotate(-21) translate(-21.1439, -24.1398)"></path>
                        <path d="M25.6860984,28.6819562 C25.6860984,23.6648076 23.6524971,19.597605 21.1439227,19.597605 C18.6353484,19.597605 16.6017471,23.6648076 16.6017471,28.6819562" id="路径" transform="translate(21.1439, 24.1398) rotate(-21) translate(-21.1439, -24.1398)"></path>
                        <line x1="14.1875017" y1="31.24271" x2="31.1875017" y2="25.24271" id="路径-18" stroke-linecap="round"></line>
                        <line x1="19.1875017" y1="20.24271" x2="24.1875017" y2="32.24271" id="路径-19" stroke-linecap="round"></line>
                        <polyline id="路径-20" stroke-linecap="round" transform="translate(53.1152, 14.1827) rotate(-7) translate(-53.1152, -14.1827)" points="42.6151971 27.1827281 51.6756128 1.93876599 63.6151971 1.18272808"></polyline>
                        <line x1="55.6702216" y1="18.6299671" x2="61.5910272" y2="18.2159441" id="路径-2" stroke-linecap="round"></line>
                        <line x1="35.7394234" y1="15.7021435" x2="39.2106463" y2="13.8564616" id="路径-2备份" stroke-linecap="round"></line>
                        <line x1="58.5383652" y1="15.3936027" x2="58.9596123" y2="21.417717" id="路径-3" stroke-linecap="round"></line>
                        <line x1="36.603056" y1="12.9710524" x2="38.4809422" y2="16.5028428" id="路径-3备份" stroke-linecap="round"></line>
                    </g>
                </g>
            </g>
        </g>
    </g>
</svg>